<?xml version="1.0" encoding="UTF-8"?>
<svg width="176px" height="36px" viewBox="0 0 176 36" version="1.1" xmlns="http://www.w3.org/2000/svg" xmlns:xlink="http://www.w3.org/1999/xlink">
    <!-- Generator: Sketch 41.2 (35397) - http://www.bohemiancoding.com/sketch -->
    <title>MJØLFJELL</title>
    <desc>Created with Sketch.</desc>
    <defs></defs>
    <g id="Page-1" stroke="none" stroke-width="1" fill="none" fill-rule="evenodd">
        <path d="M11.1152344,28 L4.92773437,7.83789062 L4.76953125,7.83789062 C4.99218861,11.9394736 5.10351562,14.6757744 5.10351562,16.046875 L5.10351562,28 L0.234375,28 L0.234375,2.30078125 L7.65234375,2.30078125 L13.734375,21.953125 L13.8398437,21.953125 L20.2910156,2.30078125 L27.7089844,2.30078125 L27.7089844,28 L22.6289062,28 L22.6289062,15.8359375 C22.6289062,15.2617159 22.6376952,14.5996131 22.6552734,13.8496094 C22.6728517,13.0996056 22.7519524,11.107438 22.8925781,7.87304688 L22.734375,7.87304688 L16.1074219,28 L11.1152344,28 Z M30.5882812,35.5585938 C29.3578063,35.5585938 28.2855514,35.4296888 27.3714843,35.171875 L27.3714843,30.6367188 C28.308989,30.8710949 29.1644492,30.9882812 29.9378906,30.9882812 C31.1332091,30.9882812 31.9886693,30.6162147 32.5042968,29.8720703 C33.0199244,29.127926 33.2777343,27.9648517 33.2777343,26.3828125 L33.2777343,2.30078125 L38.7269531,2.30078125 L38.7269531,26.3476562 C38.7269531,29.3476713 38.0414131,31.6328046 36.6703125,33.203125 C35.2992119,34.7734454 33.2718884,35.5585938 30.5882812,35.5585938 Z M67.6218749,15.1152344 C67.6218749,19.3691619 66.567198,22.6386604 64.4578124,24.9238281 C62.3484269,27.2089958 59.3250196,28.3515625 55.3874999,28.3515625 C53.0788946,28.3515625 51.1101643,27.9707069 49.4812499,27.2089844 L47.8992187,29.5820312 L45.0515624,27.6835938 L46.6335937,25.2929688 C44.3132696,23.0195199 43.1531249,19.6152571 43.1531249,15.0800781 C43.1531249,10.802713 44.2107315,7.53614409 46.3259765,5.28027344 C48.4412214,3.02440278 51.4734177,1.89648438 55.4226562,1.89648438 C57.7429803,1.89648438 59.7585851,2.30663652 61.4695312,3.12695312 L62.9460937,0.9296875 L65.7585937,2.7578125 L64.2117187,5.06054688 C66.4851675,7.33399574 67.6218749,10.6855247 67.6218749,15.1152344 Z M48.8660156,15.1152344 C48.8660156,17.3535268 49.1941373,19.152337 49.8503906,20.5117188 L58.7449218,7.22265625 C57.7605419,6.69530986 56.6531311,6.43164062 55.4226562,6.43164062 C53.2546766,6.43164062 51.6199273,7.16112552 50.5183593,8.62011719 C49.4167913,10.0791089 48.8660156,12.2441263 48.8660156,15.1152344 Z M61.9089843,15.1152344 C61.9089843,13.0058488 61.6101592,11.2656319 61.0124999,9.89453125 L52.2234374,23.0957031 C53.1140669,23.5527367 54.1687438,23.78125 55.3874999,23.78125 C59.7351779,23.78125 61.9089843,20.892607 61.9089843,15.1152344 Z M72.0480468,28 L72.0480468,2.30078125 L77.4972655,2.30078125 L77.4972655,23.5 L87.9210936,23.5 L87.9210936,28 L72.0480468,28 Z M96.8472655,28 L91.4859374,28 L91.4859374,2.30078125 L106.216406,2.30078125 L106.216406,6.765625 L96.8472655,6.765625 L96.8472655,13.3925781 L105.566015,13.3925781 L105.566015,17.8398438 L96.8472655,17.8398438 L96.8472655,28 Z M107.654297,35.5585938 C106.423822,35.5585938 105.351567,35.4296888 104.4375,35.171875 L104.4375,30.6367188 C105.375005,30.8710949 106.230465,30.9882812 107.003906,30.9882812 C108.199225,30.9882812 109.054685,30.6162147 109.570312,29.8720703 C110.08594,29.127926 110.34375,27.9648517 110.34375,26.3828125 L110.34375,2.30078125 L115.792969,2.30078125 L115.792969,26.3476562 C115.792969,29.3476713 115.107429,31.6328046 113.736328,33.203125 C112.365227,34.7734454 110.337904,35.5585938 107.654297,35.5585938 Z M136.1625,28 L121.361719,28 L121.361719,2.30078125 L136.1625,2.30078125 L136.1625,6.765625 L126.810937,6.765625 L126.810937,12.4082031 L135.512109,12.4082031 L135.512109,16.8730469 L126.810937,16.8730469 L126.810937,23.5 L136.1625,23.5 L136.1625,28 Z M140.623828,28 L140.623828,2.30078125 L146.073047,2.30078125 L146.073047,23.5 L156.496875,23.5 L156.496875,28 L140.623828,28 Z M160.061718,28 L160.061718,2.30078125 L165.510937,2.30078125 L165.510937,23.5 L175.934765,23.5 L175.934765,28 L160.061718,28 Z" id="MJØLFJELL" fill="#000000"></path>
    </g>
</svg>