<?xml version="1.0" encoding="UTF-8"?>
<svg width="314px" height="103px" viewBox="0 0 314 103" version="1.1" xmlns="http://www.w3.org/2000/svg" fill="#000000" stroke="none">
    <g>
        <g id="mjolfjell">
            <path d="M20.09375,49 L9.09375,13.15625 L8.8125,13.15625 C9.20833531,20.4479531 9.40625,25.3124878 9.40625,27.75 L9.40625,49 L0.75,49 L0.75,3.3125 L13.9375,3.3125 L24.75,38.25 L24.9375,38.25 L36.40625,3.3125 L49.59375,3.3125 L49.59375,49 L40.5625,49 L40.5625,27.375 C40.5625,26.3541616 40.5781248,25.17709 40.609375,23.84375 C40.6406252,22.51041 40.7812488,18.9687788 41.03125,13.21875 L40.75,13.21875 L28.96875,49 L20.09375,49 Z M54.7125,62.4375 C52.524989,62.4375 50.6187581,62.2083356 48.99375,61.75 L48.99375,53.6875 C50.660425,54.1041687 52.1812431,54.3125 53.55625,54.3125 C55.6812606,54.3125 57.2020787,53.6510483 58.11875,52.328125 C59.0354212,51.0052017 59.49375,48.9375141 59.49375,46.125 L59.49375,3.3125 L69.18125,3.3125 L69.18125,46.0625 C69.18125,51.39586 67.9625122,55.4583194 65.525,58.25 C63.0874878,61.0416806 59.4833572,62.4375 54.7125,62.4375 Z M120.55,26.09375 C120.55,33.6562878 118.675019,39.4687297 114.925,43.53125 C111.174981,47.5937703 105.800035,49.625 98.8,49.625 C94.6958128,49.625 91.1958478,48.9479234 88.3,47.59375 L85.4875,51.8125 L80.425,48.4375 L83.2375,44.1875 C79.1124793,40.1458131 77.05,34.0937903 77.05,26.03125 C77.05,18.4270453 78.9301895,12.6198117 82.690625,8.609375 C86.4510604,4.59893828 91.8416315,2.59375 98.8625,2.59375 C102.987521,2.59375 106.570818,3.32290937 109.6125,4.78125 L112.2375,0.875 L117.2375,4.125 L114.4875,8.21875 C118.529187,12.2604369 120.55,18.2187106 120.55,26.09375 Z M87.20625,26.09375 C87.20625,30.0729366 87.7895775,33.2708212 88.95625,35.6875 L104.76875,12.0625 C103.018741,11.1249953 101.050011,10.65625 98.8625,10.65625 C95.008314,10.65625 92.1020931,11.953112 90.14375,14.546875 C88.1854068,17.140638 87.20625,20.9895578 87.20625,26.09375 Z M110.39375,26.09375 C110.39375,22.3437313 109.862505,19.2500122 108.8,16.8125 L93.175,40.28125 C94.7583412,41.0937541 96.6333225,41.5 98.8,41.5 C106.529205,41.5 110.39375,36.3646347 110.39375,26.09375 Z M128.41875,49 L128.41875,3.3125 L138.10625,3.3125 L138.10625,41 L156.6375,41 L156.6375,49 L128.41875,49 Z M172.50625,49 L162.975,49 L162.975,3.3125 L189.1625,3.3125 L189.1625,11.25 L172.50625,11.25 L172.50625,23.03125 L188.00625,23.03125 L188.00625,30.9375 L172.50625,30.9375 L172.50625,49 Z M191.71875,62.4375 C189.531239,62.4375 187.625008,62.2083356 186,61.75 L186,53.6875 C187.666675,54.1041687 189.187493,54.3125 190.5625,54.3125 C192.687511,54.3125 194.208329,53.6510483 195.125,52.328125 C196.041671,51.0052017 196.5,48.9375141 196.5,46.125 L196.5,3.3125 L206.1875,3.3125 L206.1875,46.0625 C206.1875,51.39586 204.968762,55.4583194 202.53125,58.25 C200.093738,61.0416806 196.489607,62.4375 191.71875,62.4375 Z M242.4,49 L216.0875,49 L216.0875,3.3125 L242.4,3.3125 L242.4,11.25 L225.775,11.25 L225.775,21.28125 L241.24375,21.28125 L241.24375,29.21875 L225.775,29.21875 L225.775,41 L242.4,41 L242.4,49 Z M250.33125,49 L250.33125,3.3125 L260.01875,3.3125 L260.01875,41 L278.55,41 L278.55,49 L250.33125,49 Z M284.8875,49 L284.8875,3.3125 L294.575,3.3125 L294.575,41 L313.10625,41 L313.10625,49 L284.8875,49 Z"></path>
            <path d="M14.0273438,94.3515625 L13.3066406,91.8378906 L13.0253906,91.8378906 C12.451169,92.7519577 11.636724,93.4580053 10.5820312,93.9560547 C9.52733848,94.4541041 8.32617861,94.703125 6.97851562,94.703125 C4.66991033,94.703125 2.92969336,94.0849671 1.7578125,92.8486328 C0.585931641,91.6122985 0,89.833996 0,87.5136719 L0,74.6992188 L5.36132813,74.6992188 L5.36132813,86.1777344 C5.36132813,87.5957102 5.61327873,88.6591761 6.1171875,89.3681641 C6.62109627,90.077152 7.42382262,90.4316406 8.52539062,90.4316406 C10.0253981,90.4316406 11.1093717,89.9306691 11.7773438,88.9287109 C12.4453158,87.9267528 12.7792969,86.2656366 12.7792969,83.9453125 L12.7792969,74.6992188 L18.140625,74.6992188 L18.140625,94.3515625 L14.0273438,94.3515625 Z M41.10625,94.3515625 L35.7449219,94.3515625 L35.7449219,82.8730469 C35.7449219,81.455071 35.4929713,80.3916051 34.9890625,79.6826172 C34.4851537,78.9736293 33.6824274,78.6191406 32.5808594,78.6191406 C31.0808519,78.6191406 29.9968783,79.1201122 29.3289062,80.1220703 C28.6609341,81.1240284 28.3269531,82.7851446 28.3269531,85.1054688 L28.3269531,94.3515625 L22.965625,94.3515625 L22.965625,74.6992188 L27.0613281,74.6992188 L27.7820312,77.2128906 L28.0808594,77.2128906 C28.6785186,76.2636671 29.5017526,75.5459009 30.5505859,75.0595703 C31.5994193,74.5732398 32.7917902,74.3300781 34.1277344,74.3300781 C36.412902,74.3300781 38.1472597,74.948236 39.3308594,76.1845703 C40.514459,77.4209046 41.10625,79.2050665 41.10625,81.5371094 L41.10625,94.3515625 Z M62.9292969,74.6992188 L62.9292969,77.4238281 L59.853125,78.2148438 C60.4156278,79.0937544 60.696875,80.0781196 60.696875,81.1679688 C60.696875,83.2773543 59.9615308,84.9208925 58.4908203,86.0986328 C57.0201098,87.2763731 54.978138,87.8652344 52.3648437,87.8652344 L51.3980469,87.8125 L50.6070312,87.7246094 C50.0562472,88.1464865 49.7808594,88.6152318 49.7808594,89.1308594 C49.7808594,89.9043007 50.7652245,90.2910156 52.7339844,90.2910156 L56.0738281,90.2910156 C58.2300889,90.2910156 59.8736271,90.7539016 61.0044922,91.6796875 C62.1353572,92.6054734 62.7007812,93.9648348 62.7007812,95.7578125 C62.7007812,98.054699 61.742783,99.8359312 59.8267578,101.101562 C57.9107326,102.367194 55.1597835,103 51.5738281,103 C48.8316269,103 46.7369213,102.522466 45.2896484,101.567383 C43.8423756,100.6123 43.11875,99.2734461 43.11875,97.5507812 C43.11875,96.3671816 43.4878869,95.3769571 44.2261719,94.5800781 C44.9644568,93.7831991 46.0484303,93.2148454 47.478125,92.875 C46.927341,92.6406238 46.446877,92.2568386 46.0367187,91.7236328 C45.6265604,91.190427 45.4214844,90.625003 45.4214844,90.0273438 C45.4214844,89.27734 45.6382791,88.6533228 46.071875,88.1552734 C46.5054709,87.6572241 47.1324177,87.1679712 47.9527344,86.6875 C46.9214792,86.2421853 46.1041046,85.5273487 45.5005859,84.5429688 C44.8970673,83.5585888 44.5953125,82.3984442 44.5953125,81.0625 C44.5953125,78.917958 45.2925711,77.2597715 46.6871094,76.0878906 C48.0816476,74.9160098 50.0738152,74.3300781 52.6636719,74.3300781 C53.2144559,74.3300781 53.8677696,74.3798823 54.6236328,74.4794922 C55.3794959,74.5791021 55.8628895,74.6523435 56.0738281,74.6992188 L62.9292969,74.6992188 Z M47.759375,97.1289062 C47.759375,97.8671912 48.1138636,98.4472635 48.8228515,98.8691406 C49.5318395,99.2910177 50.5249936,99.5019531 51.8023437,99.5019531 C53.7242283,99.5019531 55.2300727,99.2382839 56.3199219,98.7109375 C57.4097711,98.1835911 57.9546875,97.4628952 57.9546875,96.5488281 C57.9546875,95.8105432 57.6324251,95.3007827 56.9878906,95.0195312 C56.3433561,94.7382798 55.3472723,94.5976562 53.9996094,94.5976562 L51.2222656,94.5976562 C50.2378857,94.5976562 49.4146517,94.8290992 48.752539,95.2919922 C48.0904264,95.7548851 47.759375,96.3671837 47.759375,97.1289062 Z M49.7105469,81.1328125 C49.7105469,82.1992241 49.9537085,83.0429656 50.440039,83.6640625 C50.9263696,84.2851594 51.6675731,84.5957031 52.6636719,84.5957031 C53.6714894,84.5957031 54.4097633,84.2851594 54.8785156,83.6640625 C55.3472679,83.0429656 55.5816406,82.1992241 55.5816406,81.1328125 C55.5816406,78.7656132 54.6089941,77.5820312 52.6636719,77.5820312 C50.694912,77.5820312 49.7105469,78.7656132 49.7105469,81.1328125 Z M71.5863281,94.703125 C69.2777228,94.703125 67.4642644,93.8066496 66.1458984,92.0136719 C64.8275324,90.2206942 64.1683593,87.736344 64.1683593,84.5605469 C64.1683593,81.3378745 64.8392511,78.8271574 66.1810547,77.0283203 C67.5228582,75.2294832 69.3714726,74.3300781 71.7269531,74.3300781 C74.1996217,74.3300781 76.0863216,75.291006 77.3871093,77.2128906 L77.5628906,77.2128906 C77.293358,75.7480396 77.1585937,74.441412 77.1585937,73.2929688 L77.1585937,67 L82.5375,67 L82.5375,94.3515625 L78.4242187,94.3515625 L77.3871093,91.8027344 L77.1585937,91.8027344 C75.9398376,93.7363378 74.0824343,94.703125 71.5863281,94.703125 Z M73.4671875,90.4316406 C74.8382881,90.4316406 75.8431608,90.0332071 76.4818359,89.2363281 C77.120511,88.4394491 77.4691403,87.0859471 77.5277343,85.1757812 L77.5277343,84.5957031 C77.5277343,82.4863176 77.2025423,80.9746139 76.5521484,80.0605469 C75.9017545,79.1464798 74.8441479,78.6894531 73.3792968,78.6894531 C72.1839784,78.6894531 71.2552767,79.196284 70.593164,80.2099609 C69.9310513,81.2236379 69.6,82.697256 69.6,84.6308594 C69.6,86.5644628 69.933981,88.0146436 70.6019531,88.9814453 C71.2699252,89.948247 72.2249938,90.4316406 73.4671875,90.4316406 Z M91.6164062,84.4902344 C91.6164062,86.4355566 91.9357389,87.906245 92.574414,88.9023438 C93.2130891,89.8984425 94.2531177,90.3964844 95.6945312,90.3964844 C97.1242259,90.3964844 98.1525359,89.9013721 98.7794921,88.9111328 C99.4064484,87.9208935 99.7199218,86.4472754 99.7199218,84.4902344 C99.7199218,82.5449121 99.4035187,81.0859424 98.7707031,80.1132812 C98.1378874,79.1406201 97.1007884,78.6542969 95.659375,78.6542969 C94.2296803,78.6542969 93.1984406,79.1376905 92.565625,80.1044922 C91.9328093,81.0712939 91.6164062,82.5331933 91.6164062,84.4902344 Z M105.204297,84.4902344 C105.204297,87.6894691 104.360555,90.1913972 102.673047,91.9960938 C100.985538,93.8007903 98.6359525,94.703125 95.6242187,94.703125 C93.7374905,94.703125 92.0734447,94.2900432 90.6320312,93.4638672 C89.1906177,92.6376912 88.0832069,91.4511796 87.3097656,89.9042969 C86.5363242,88.3574141 86.1496093,86.5527447 86.1496093,84.4902344 C86.1496093,81.2792808 86.9874916,78.783212 88.6632812,77.0019531 C90.3390708,75.2206942 92.694516,74.3300781 95.7296875,74.3300781 C97.6164156,74.3300781 99.2804615,74.7402303 100.721875,75.5605469 C102.163288,76.3808635 103.270699,77.5585861 104.044141,79.09375 C104.817582,80.6289139 105.204297,82.4277241 105.204297,84.4902344 Z M126.429687,94.3515625 L121.068359,94.3515625 L121.068359,82.8730469 C121.068359,81.455071 120.831057,80.3916051 120.356445,79.6826172 C119.881834,78.9736293 119.134771,78.6191406 118.115234,78.6191406 C116.744134,78.6191406 115.74805,79.1230418 115.126953,80.1308594 C114.505856,81.1386769 114.195312,82.7968635 114.195312,85.1054688 L114.195312,94.3515625 L108.833984,94.3515625 L108.833984,74.6992188 L112.929687,74.6992188 L113.650391,77.2128906 L113.949219,77.2128906 C114.476565,76.3105424 115.238276,75.6044947 116.234375,75.0947266 C117.230474,74.5849584 118.37304,74.3300781 119.662109,74.3300781 C122.60353,74.3300781 124.595698,75.291006 125.638672,77.2128906 L126.113281,77.2128906 C126.640628,76.2988236 127.416987,75.5898463 128.442383,75.0859375 C129.467779,74.5820287 130.624993,74.3300781 131.914062,74.3300781 C134.140636,74.3300781 135.82519,74.9013615 136.967773,76.0439453 C138.110357,77.1865292 138.681641,79.0175655 138.681641,81.5371094 L138.681641,94.3515625 L133.302734,94.3515625 L133.302734,82.8730469 C133.302734,81.455071 133.065432,80.3916051 132.59082,79.6826172 C132.116209,78.9736293 131.369146,78.6191406 130.349609,78.6191406 C129.037103,78.6191406 128.055667,79.0878859 127.405273,80.0253906 C126.75488,80.9628953 126.429687,82.4511617 126.429687,84.4902344 L126.429687,94.3515625 Z M157.094531,88.515625 C157.094531,90.5312601 156.394343,92.066401 154.993945,93.1210938 C153.593548,94.1757865 151.498842,94.703125 148.709766,94.703125 C147.280071,94.703125 146.061333,94.6064463 145.053516,94.4130859 C144.045698,94.2197256 143.102348,93.9355488 142.223437,93.5605469 L142.223437,89.1308594 C143.219536,89.5996117 144.341595,89.9921859 145.589648,90.3085938 C146.837701,90.6250016 147.936323,90.7832031 148.885547,90.7832031 C150.830869,90.7832031 151.803516,90.2207088 151.803516,89.0957031 C151.803516,88.673826 151.674611,88.331056 151.416797,88.0673828 C151.158983,87.8037096 150.713675,87.5048845 150.080859,87.1708984 C149.448044,86.8369124 148.604302,86.4472679 147.549609,86.0019531 C146.037883,85.3691375 144.927543,84.7832058 144.218555,84.2441406 C143.509567,83.7050754 142.993947,83.0869175 142.67168,82.3896484 C142.349412,81.6923793 142.188281,80.8339895 142.188281,79.8144531 C142.188281,78.0683506 142.865032,76.7177782 144.218555,75.7626953 C145.572077,74.8076124 147.491003,74.3300781 149.975391,74.3300781 C152.34259,74.3300781 154.645301,74.845698 156.883594,75.8769531 L155.266406,79.7441406 C154.282026,79.3222635 153.362114,78.9765638 152.506641,78.7070312 C151.651168,78.4374987 150.778129,78.3027344 149.8875,78.3027344 C148.305461,78.3027344 147.514453,78.7304645 147.514453,79.5859375 C147.514453,80.0664087 147.769333,80.4824201 148.279101,80.8339844 C148.78887,81.1855486 149.905069,81.7070278 151.627734,82.3984375 C153.162898,83.0195344 154.287887,83.5996067 155.002734,84.1386719 C155.717582,84.6777371 156.24492,85.2988246 156.584766,86.0019531 C156.924611,86.7050816 157.094531,87.5429639 157.094531,88.515625 Z M178.61875,94.3515625 L173.257422,94.3515625 L173.257422,82.8730469 C173.257422,80.0370952 172.202745,78.6191406 170.093359,78.6191406 C168.593352,78.6191406 167.509378,79.1289012 166.841406,80.1484375 C166.173434,81.1679738 165.839453,82.8203011 165.839453,85.1054688 L165.839453,94.3515625 L160.478125,94.3515625 L160.478125,67 L165.839453,67 L165.839453,72.5722656 C165.839453,73.0058615 165.798438,74.0253826 165.716406,75.6308594 L165.593359,77.2128906 L165.874609,77.2128906 C167.069928,75.291006 168.968346,74.3300781 171.569922,74.3300781 C173.878527,74.3300781 175.630463,74.9511657 176.825781,76.1933594 C178.0211,77.4355531 178.61875,79.2167853 178.61875,81.5371094 L178.61875,94.3515625 Z M191.476953,78.1445312 C190.340229,78.1445312 189.449613,78.5048792 188.805078,79.2255859 C188.160544,79.9462927 187.791407,80.9687434 187.697656,82.2929688 L195.221094,82.2929688 C195.197656,80.9687434 194.851956,79.9462927 194.183984,79.2255859 C193.516012,78.5048792 192.613677,78.1445312 191.476953,78.1445312 Z M192.232812,94.703125 C189.068734,94.703125 186.596103,93.8300869 184.814844,92.0839844 C183.033585,90.3378819 182.142969,87.8652504 182.142969,84.6660156 C182.142969,81.3730304 182.966203,78.8271574 184.612695,77.0283203 C186.259188,75.2294832 188.535532,74.3300781 191.441797,74.3300781 C194.219154,74.3300781 196.381242,75.1210858 197.928125,76.703125 C199.475008,78.2851642 200.248437,80.4706892 200.248437,83.2597656 L200.248437,85.8613281 L187.574609,85.8613281 C187.633203,87.3847732 188.084371,88.5742145 188.928125,89.4296875 C189.771879,90.2851605 190.955461,90.7128906 192.478906,90.7128906 C193.662506,90.7128906 194.781635,90.589845 195.836328,90.34375 C196.891021,90.097655 197.992572,89.7050808 199.141016,89.1660156 L199.141016,93.3144531 C198.203511,93.7832055 197.201568,94.1318348 196.135156,94.3603516 C195.068745,94.5888683 193.767976,94.703125 192.232812,94.703125 Z M214.776562,74.3300781 C215.503129,74.3300781 216.106638,74.382812 216.587109,74.4882812 L216.182812,79.515625 C215.749216,79.3984369 215.221878,79.3398438 214.600781,79.3398438 C212.889835,79.3398438 211.556841,79.7792925 210.601758,80.6582031 C209.646675,81.5371138 209.169141,82.7675702 209.169141,84.3496094 L209.169141,94.3515625 L203.807812,94.3515625 L203.807812,74.6992188 L207.868359,74.6992188 L208.659375,78.0039062 L208.923047,78.0039062 C209.532425,76.9023382 210.355659,76.0146518 211.392773,75.3408203 C212.429888,74.6669888 213.557806,74.3300781 214.776562,74.3300781 Z M230.289062,74.3300781 C232.609386,74.3300781 234.425775,75.2353425 235.738281,77.0458984 C237.050788,78.8564544 237.707031,81.3378749 237.707031,84.4902344 C237.707031,87.7363444 237.03028,90.2499911 235.676758,92.03125 C234.323235,93.8125089 232.48048,94.703125 230.148437,94.703125 C227.839832,94.703125 226.029303,93.8652428 224.716797,92.1894531 L224.347656,92.1894531 L223.451172,94.3515625 L219.355469,94.3515625 L219.355469,67 L224.716797,67 L224.716797,73.3632812 C224.716797,74.171879 224.646485,75.466788 224.505859,77.2480469 L224.716797,77.2480469 C225.970709,75.3027246 227.828113,74.3300781 230.289062,74.3300781 Z M228.566406,78.6191406 C227.242181,78.6191406 226.275394,79.0263631 225.666016,79.8408203 C225.056637,80.6552775 224.740234,81.9999906 224.716797,83.875 L224.716797,84.4550781 C224.716797,86.5644637 225.03027,88.0761673 225.657226,88.9902344 C226.284183,89.9043014 227.277337,90.3613281 228.636719,90.3613281 C229.738287,90.3613281 230.614254,89.8544973 231.264648,88.8408203 C231.915042,87.8271434 232.240234,86.3535253 232.240234,84.4199219 C232.240234,82.4863185 231.912113,81.0361376 231.255859,80.0693359 C230.599606,79.1025342 229.703131,78.6191406 228.566406,78.6191406 Z M249.47539,78.1445312 C248.338666,78.1445312 247.44805,78.5048792 246.803515,79.2255859 C246.158981,79.9462927 245.789844,80.9687434 245.696094,82.2929688 L253.219531,82.2929688 C253.196094,80.9687434 252.850394,79.9462927 252.182422,79.2255859 C251.51445,78.5048792 250.612115,78.1445312 249.47539,78.1445312 Z M250.23125,94.703125 C247.067172,94.703125 244.59454,93.8300869 242.813281,92.0839844 C241.032022,90.3378819 240.141406,87.8652504 240.141406,84.6660156 C240.141406,81.3730304 240.96464,78.8271574 242.611133,77.0283203 C244.257625,75.2294832 246.53397,74.3300781 249.440234,74.3300781 C252.217592,74.3300781 254.37968,75.1210858 255.926562,76.703125 C257.473445,78.2851642 258.246875,80.4706892 258.246875,83.2597656 L258.246875,85.8613281 L245.573047,85.8613281 C245.631641,87.3847732 246.082808,88.5742145 246.926562,89.4296875 C247.770317,90.2851605 248.953899,90.7128906 250.477344,90.7128906 C251.660943,90.7128906 252.780073,90.589845 253.834765,90.34375 C254.889458,90.097655 255.99101,89.7050808 257.139453,89.1660156 L257.139453,93.3144531 C256.201948,93.7832055 255.200005,94.1318348 254.133594,94.3603516 C253.067182,94.5888683 251.766414,94.703125 250.23125,94.703125 Z M272.775,74.3300781 C273.501566,74.3300781 274.105076,74.382812 274.585547,74.4882812 L274.18125,79.515625 C273.747654,79.3984369 273.220315,79.3398438 272.599219,79.3398438 C270.888273,79.3398438 269.555278,79.7792925 268.600195,80.6582031 C267.645112,81.5371138 267.167578,82.7675702 267.167578,84.3496094 L267.167578,94.3515625 L261.80625,94.3515625 L261.80625,74.6992188 L265.866797,74.6992188 L266.657812,78.0039062 L266.921484,78.0039062 C267.530862,76.9023382 268.354096,76.0146518 269.391211,75.3408203 C270.428325,74.6669888 271.556244,74.3300781 272.775,74.3300781 Z M294.105859,74.6992188 L294.105859,77.4238281 L291.029687,78.2148438 C291.59219,79.0937544 291.873437,80.0781196 291.873437,81.1679688 C291.873437,83.2773543 291.138093,84.9208925 289.667383,86.0986328 C288.196672,87.2763731 286.1547,87.8652344 283.541406,87.8652344 L282.574609,87.8125 L281.783594,87.7246094 C281.23281,88.1464865 280.957422,88.6152318 280.957422,89.1308594 C280.957422,89.9043007 281.941787,90.2910156 283.910547,90.2910156 L287.25039,90.2910156 C289.406651,90.2910156 291.05019,90.7539016 292.181055,91.6796875 C293.31192,92.6054734 293.877344,93.9648348 293.877344,95.7578125 C293.877344,98.054699 292.919345,99.8359312 291.00332,101.101562 C289.087295,102.367194 286.336346,103 282.75039,103 C280.008189,103 277.913484,102.522466 276.466211,101.567383 C275.018938,100.6123 274.295312,99.2734461 274.295312,97.5507812 C274.295312,96.3671816 274.664449,95.3769571 275.402734,94.5800781 C276.141019,93.7831991 277.224993,93.2148454 278.654687,92.875 C278.103903,92.6406238 277.623439,92.2568386 277.213281,91.7236328 C276.803123,91.190427 276.598047,90.625003 276.598047,90.0273438 C276.598047,89.27734 276.814841,88.6533228 277.248437,88.1552734 C277.682033,87.6572241 278.30898,87.1679712 279.129297,86.6875 C278.098042,86.2421853 277.280667,85.5273487 276.677148,84.5429688 C276.07363,83.5585888 275.771875,82.3984442 275.771875,81.0625 C275.771875,78.917958 276.469133,77.2597715 277.863672,76.0878906 C279.25821,74.9160098 281.250378,74.3300781 283.840234,74.3300781 C284.391018,74.3300781 285.044332,74.3798823 285.800195,74.4794922 C286.556058,74.5791021 287.039452,74.6523435 287.25039,74.6992188 L294.105859,74.6992188 Z M278.935937,97.1289062 C278.935937,97.8671912 279.290426,98.4472635 279.999414,98.8691406 C280.708402,99.2910177 281.701556,99.5019531 282.978906,99.5019531 C284.900791,99.5019531 286.406635,99.2382839 287.496484,98.7109375 C288.586333,98.1835911 289.13125,97.4628952 289.13125,96.5488281 C289.13125,95.8105432 288.808987,95.3007827 288.164453,95.0195312 C287.519918,94.7382798 286.523835,94.5976562 285.176172,94.5976562 L282.398828,94.5976562 C281.414448,94.5976562 280.591214,94.8290992 279.929101,95.2919922 C279.266989,95.7548851 278.935937,96.3671837 278.935937,97.1289062 Z M280.887109,81.1328125 C280.887109,82.1992241 281.130271,83.0429656 281.616601,83.6640625 C282.102932,84.2851594 282.844135,84.5957031 283.840234,84.5957031 C284.848052,84.5957031 285.586326,84.2851594 286.055078,83.6640625 C286.52383,83.0429656 286.758203,82.1992241 286.758203,81.1328125 C286.758203,78.7656132 285.785556,77.5820312 283.840234,77.5820312 C281.871474,77.5820312 280.887109,78.7656132 280.887109,81.1328125 Z M304.678906,78.1445312 C303.542182,78.1445312 302.651566,78.5048792 302.007031,79.2255859 C301.362497,79.9462927 300.99336,80.9687434 300.899609,82.2929688 L308.423047,82.2929688 C308.399609,80.9687434 308.053909,79.9462927 307.385937,79.2255859 C306.717965,78.5048792 305.815631,78.1445312 304.678906,78.1445312 Z M305.434765,94.703125 C302.270687,94.703125 299.798056,93.8300869 298.016797,92.0839844 C296.235538,90.3378819 295.344922,87.8652504 295.344922,84.6660156 C295.344922,81.3730304 296.168156,78.8271574 297.814648,77.0283203 C299.461141,75.2294832 301.737485,74.3300781 304.64375,74.3300781 C307.421107,74.3300781 309.583195,75.1210858 311.130078,76.703125 C312.676961,78.2851642 313.45039,80.4706892 313.45039,83.2597656 L313.45039,85.8613281 L300.776562,85.8613281 C300.835156,87.3847732 301.286324,88.5742145 302.130078,89.4296875 C302.973832,90.2851605 304.157414,90.7128906 305.680859,90.7128906 C306.864459,90.7128906 307.983588,90.589845 309.038281,90.34375 C310.092974,90.097655 311.194525,89.7050808 312.342969,89.1660156 L312.342969,93.3144531 C311.405464,93.7832055 310.403521,94.1318348 309.337109,94.3603516 C308.270698,94.5888683 306.969929,94.703125 305.434765,94.703125 Z"></path>
        </g>
    </g>
</svg>